<?xml version="1.0" standalone="no"?>
<!DOCTYPE svg PUBLIC "-//W3C//DTD SVG 20010904//EN"
 "http://www.w3.org/TR/2001/REC-SVG-20010904/DTD/svg10.dtd">
<svg version="1.0" xmlns="http://www.w3.org/2000/svg"
 width="27.093" height="27.093" viewBox="0 0 495.000000 494.000000"
 preserveAspectRatio="xMidYMid meet">

<g transform="translate(0.000000,500.000000) scale(0.100000,-0.100000)"
fill="#000000" stroke="none">
<path d="M2170 4975 c-177 -21 -468 -99 -625 -167 -106 -46 -236 -109 -275
-133 -142 -88 -184 -116 -255 -169 -226 -168 -428 -378 -591 -616 -74 -108
-219 -394 -268 -530 -53 -145 -113 -387 -131 -533 -19 -156 -20 -495 -1 -648
56 -451 242 -886 531 -1244 548 -678 1381 -1013 2263 -909 397 46 823 216
1161 462 408 298 725 734 894 1232 32 94 46 149 79 310 36 180 50 564 28 765
-23 202 -100 487 -186 691 -167 396 -460 765 -818 1028 -171 126 -435 266
-641 340 -136 49 -365 103 -510 121 -146 18 -505 18 -655 0z m605 -391 c595
-73 1128 -406 1478 -922 122 -179 251 -483 302 -710 67 -298 57 -722 -23
-1007 -39 -140 -111 -319 -174 -435 -290 -530 -779 -910 -1364 -1060 -157 -40
-280 -53 -499 -53 -213 0 -303 10 -485 55 -513 124 -966 445 -1269 898 -151
225 -263 505 -313 780 -42 234 -34 600 18 825 89 389 284 744 564 1026 334
336 739 538 1210 603 199 28 329 28 555 0z"/>
<path d="M2071 3990 c-18 -4 -45 -20 -60 -34 l-26 -26 -3 -825 -2 -825 -186 0
c-242 0 -274 -13 -274 -108 0 -45 29 -82 743 -931 204 -243 192 -231 235 -231
21 0 44 6 52 13 27 22 886 1052 911 1092 24 38 24 96 2 124 -26 30 -100 41
-283 41 l-157 0 -7 133 c-4 72 -5 434 -2 802 5 718 4 721 -45 758 -25 18 -49
19 -445 22 -231 2 -434 0 -453 -5z"/>
</g>
</svg>
