<?xml version="1.0" standalone="no"?>
<!DOCTYPE svg PUBLIC "-//W3C//DTD SVG 20010904//EN"
 "http://www.w3.org/TR/2001/REC-SVG-20010904/DTD/svg10.dtd">
<svg version="1.0" xmlns="http://www.w3.org/2000/svg"
 width="37.093" height="37.093" viewBox="0 0 195.000000 194.000000"
 preserveAspectRatio="xMidYMid meet">

<g transform="translate(0.000000,133.000000) scale(0.100000,-0.100000)"
fill="#000000" stroke="none">
<path d="M695 1244 c-44 -32 -103 -78 -131 -103 -28 -25 -96 -73 -150 -106
-144 -87 -354 -234 -354 -249 0 -7 91 -75 202 -151 112 -76 273 -188 358 -247
l155 -108 5 152 5 153 235 0 235 0 51 -27 c66 -34 120 -98 139 -162 21 -68 19
-205 -4 -299 -10 -42 -17 -77 -16 -77 5 0 121 183 139 218 10 19 28 64 41 100
12 37 30 85 38 107 37 93 14 267 -47 364 -36 56 -111 117 -175 143 -52 21 -75
23 -346 28 l-290 5 -5 158 -5 159 -80 -58z"/>
</g>
</svg>
